<?xml version="1.0" encoding="UTF-8" standalone="no"?>
<!-- Created with Inkscape (http://www.inkscape.org/) -->

<svg
   version="1.1"
   id="svg2"
   width="1920"
   height="1920"
   viewBox="0 0 1920 1920"
   sodipodi:docname="Jen Krespine Logo (2).ai"
   xmlns:inkscape="http://www.inkscape.org/namespaces/inkscape"
   xmlns:sodipodi="http://sodipodi.sourceforge.net/DTD/sodipodi-0.dtd"
   xmlns="http://www.w3.org/2000/svg"
   xmlns:svg="http://www.w3.org/2000/svg">
  <defs
     id="defs6">
    <clipPath
       clipPathUnits="userSpaceOnUse"
       id="clipPath16">
      <path
         d="M 0,1440 H 1440 V 0 H 0 Z"
         id="path14" />
    </clipPath>
  </defs>
  <sodipodi:namedview
     id="namedview4"
     pagecolor="#ffffff"
     bordercolor="#000000"
     borderopacity="0.25"
     inkscape:showpageshadow="2"
     inkscape:pageopacity="0.0"
     inkscape:pagecheckerboard="0"
     inkscape:deskcolor="#d1d1d1" />
  <g
     id="g8"
     inkscape:groupmode="layer"
     inkscape:label="Jen Krespine Logo (2)"
     transform="matrix(1.3333333,0,0,-1.3333333,0,1920)">
    <g
       id="g10">
      <g
         id="g12"
         clip-path="url(#clipPath16)">
        <g
           id="g18"
           transform="translate(1152.9808,592.7446)">
          <path
             d="m 0,0 c -5.02,-19.78 -11.55,-39.2 -19.58,-58.18 -20.53,-48.54 -49.92,-92.13 -87.36,-129.57 -37.43,-37.43 -81.03,-66.82 -129.57,-87.35 -50.26,-21.26 -103.64,-32.04 -158.67,-32.04 -55.03,0 -108.41,10.78 -158.67,32.04 -48.54,20.53 -92.14,49.92 -129.57,87.35 -37.44,37.44 -66.83,81.03 -87.36,129.57 -8.03,18.98 -14.56,38.4 -19.58,58.18 h 12.49 c 44.57,-169.65 199.25,-295.14 382.69,-295.14 183.44,0 338.13,125.49 382.7,295.14 z"
             style="fill:#11274a;fill-opacity:1;fill-rule:nonzero;stroke:none"
             id="path20" />
        </g>
        <g
           id="g22"
           transform="translate(1134.7008,848.7947)">
          <path
             d="M 0,0 H -13.13 C -73.67,141.05 -213.94,240.08 -376.9,240.08 -539.86,240.08 -680.12,141.05 -740.66,0 h -13.14 c 0.43,1.04 0.86,2.08 1.3,3.12 20.53,48.54 49.92,92.13 87.36,129.57 37.43,37.43 81.03,66.82 129.57,87.35 50.26,21.26 103.64,32.04 158.67,32.04 55.03,0 108.41,-10.78 158.67,-32.04 48.54,-20.53 92.14,-49.92 129.57,-87.35 C -51.22,95.25 -21.83,51.66 -1.3,3.12 -0.86,2.08 -0.43,1.04 0,0"
             style="fill:#11274a;fill-opacity:1;fill-rule:nonzero;stroke:none"
             id="path24" />
        </g>
        <g
           id="g26"
           transform="translate(480.5521,710.5966)">
          <path
             d="m 0,0 c -0.427,6.375 -1.147,10.752 -2.168,13.132 -1.785,3.908 -4.42,6.991 -7.905,9.244 -3.486,2.251 -7.139,3.378 -10.964,3.378 -2.805,0 -5.546,-0.573 -8.223,-1.721 -2.677,-1.147 -5.1,-2.826 -7.267,-5.036 -2.168,-2.211 -3.997,-4.909 -5.482,-8.096 C -43.498,7.714 -44.412,4.08 -44.75,0 Z m -44.75,-6.119 c 0,-7.14 0.956,-13.558 2.868,-19.252 1.913,-5.696 4.482,-10.518 7.713,-14.47 3.229,-3.953 6.969,-6.971 11.22,-9.053 4.249,-2.084 8.753,-3.123 13.514,-3.123 6.289,0 11.771,1.741 16.447,5.227 4.673,3.484 8.584,9.435 11.73,17.849 l 3.314,-2.167 c -0.765,-4.59 -2.231,-9.16 -4.398,-13.706 -2.168,-4.548 -4.973,-8.628 -8.415,-12.24 -3.442,-3.613 -7.416,-6.545 -11.921,-8.796 -4.506,-2.251 -9.434,-3.379 -14.789,-3.379 -5.781,0 -11.219,1.169 -16.319,3.507 -5.1,2.336 -9.562,5.672 -13.387,10.007 -3.825,4.335 -6.865,9.583 -9.116,15.746 -2.253,6.161 -3.379,13.068 -3.379,20.718 0,8.243 1.126,15.618 3.379,22.12 2.251,6.503 5.375,12.004 9.371,16.51 3.994,4.504 8.711,7.947 14.152,10.328 5.438,2.378 11.347,3.569 17.722,3.569 5.354,0 10.305,-0.936 14.853,-2.805 4.545,-1.87 8.456,-4.526 11.729,-7.968 3.271,-3.442 5.843,-7.586 7.713,-12.43 1.869,-4.846 2.805,-10.244 2.805,-16.192 z"
             style="fill:#11274a;fill-opacity:1;fill-rule:nonzero;stroke:none"
             id="path28" />
        </g>
        <g
           id="g30"
           transform="translate(536.2662,723.2191)">
          <path
             d="m 0,0 c 11.389,13.684 22.184,20.527 32.384,20.527 3.57,0 6.884,-0.596 9.944,-1.785 3.06,-1.192 5.694,-3.21 7.905,-6.057 2.209,-2.848 3.952,-6.587 5.227,-11.219 1.275,-4.634 1.912,-10.39 1.912,-17.275 v -41.308 c 0,-3.401 0.106,-6.248 0.319,-8.543 0.211,-2.295 0.785,-4.143 1.721,-5.545 0.935,-1.403 2.379,-2.403 4.335,-2.996 1.954,-0.596 4.717,-0.893 8.287,-0.893 v -3.825 H 24.352 v 3.825 h 1.912 c 3.143,0 5.629,0.297 7.458,0.893 1.827,0.593 3.207,1.571 4.144,2.932 0.934,1.358 1.508,3.187 1.721,5.482 0.211,2.295 0.319,5.183 0.319,8.67 v 39.523 c 0,8.924 -1.148,15.341 -3.442,19.251 C 34.169,5.565 30.344,7.522 24.989,7.522 16.658,7.522 8.329,2.974 0,-6.12 v -50.997 c 0,-3.57 0.106,-6.355 0.318,-8.351 0.212,-1.999 0.553,-3.55 1.021,-4.654 0.466,-1.105 1.019,-1.871 1.657,-2.295 0.638,-0.426 1.339,-0.85 2.103,-1.275 1.87,-0.936 5.397,-1.402 10.583,-1.402 v -3.825 h -47.811 v 3.825 h 2.168 c 2.464,0 4.504,0.275 6.12,0.828 1.613,0.552 2.889,1.508 3.824,2.869 0.935,1.359 1.594,3.188 1.977,5.482 0.382,2.295 0.574,5.228 0.574,8.798 v 35.825 c 0,11.644 -0.256,18.698 -0.766,21.164 -0.51,2.55 -1.318,4.291 -2.422,5.228 -1.106,0.934 -2.55,1.402 -4.334,1.402 -2.04,0 -4.422,-0.554 -7.141,-1.657 L -33.658,8.67 -4.59,20.527 H 0 Z"
             style="fill:#11274a;fill-opacity:1;fill-rule:nonzero;stroke:none"
             id="path32" />
        </g>
        <g
           id="g34"
           transform="translate(679.2341,712.2546)">
          <path
             d="m 0,0 c 0,3.569 -0.659,6.885 -1.976,9.944 -1.319,3.06 -3.018,5.715 -5.1,7.969 -2.083,2.251 -4.42,3.994 -7.012,5.227 -2.593,1.231 -5.122,1.848 -7.585,1.848 -3.825,0 -7.376,-0.936 -10.646,-2.804 -3.273,-1.871 -6.1,-4.57 -8.479,-8.096 -2.381,-3.528 -4.251,-7.778 -5.61,-12.749 -1.36,-4.973 -2.04,-10.518 -2.04,-16.638 0,-7.141 0.849,-13.451 2.55,-18.933 1.7,-5.482 3.953,-10.072 6.758,-13.77 2.804,-3.697 5.992,-6.502 9.562,-8.414 3.57,-1.913 7.223,-2.869 10.964,-2.869 6.375,0 12.578,3.187 18.614,9.562 z m 0,-57.118 c -4.675,-4.93 -9.265,-8.458 -13.769,-10.582 -4.506,-2.123 -9.351,-3.187 -14.535,-3.187 -5.27,0 -10.284,1.147 -15.043,3.442 -4.762,2.295 -8.969,5.525 -12.623,9.69 -3.655,4.163 -6.546,9.136 -8.669,14.917 -2.126,5.778 -3.188,12.153 -3.188,19.124 0,6.799 1.148,13.492 3.443,20.08 2.294,6.586 5.502,12.495 9.626,17.722 4.121,5.227 9.052,9.454 14.789,12.685 5.737,3.23 12.048,4.845 18.933,4.845 8.584,0 15.596,-2.721 21.036,-8.159 v 17.849 c 0,11.048 -0.255,41.805 -0.765,44.272 -0.51,2.55 -1.339,4.291 -2.486,5.226 -1.147,0.935 -2.572,1.403 -4.27,1.403 -1.702,0 -4.124,-0.596 -7.268,-1.785 l -1.402,3.698 28.813,11.857 h 4.717 V -29.706 c 0,-11.306 0.256,-18.232 0.766,-20.782 0.509,-2.466 1.358,-4.188 2.549,-5.163 1.19,-0.978 2.55,-1.467 4.081,-1.467 1.785,0 4.334,0.594 7.649,1.785 L 33.532,-59.03 4.845,-70.887 H 0 Z"
             style="fill:#11274a;fill-opacity:1;fill-rule:nonzero;stroke:none"
             id="path36" />
        </g>
        <g
           id="g38"
           transform="translate(768.3549,710.5966)">
          <path
             d="m 0,0 c -0.427,6.375 -1.148,10.752 -2.168,13.132 -1.785,3.908 -4.42,6.991 -7.905,9.244 -3.486,2.251 -7.139,3.378 -10.965,3.378 -2.805,0 -5.546,-0.573 -8.223,-1.721 -2.676,-1.147 -5.1,-2.826 -7.266,-5.036 -2.168,-2.211 -3.997,-4.909 -5.482,-8.096 C -43.498,7.714 -44.413,4.08 -44.75,0 Z m -44.75,-6.119 c 0,-7.14 0.956,-13.558 2.868,-19.252 1.912,-5.696 4.482,-10.518 7.713,-14.47 3.229,-3.953 6.968,-6.971 11.219,-9.053 4.249,-2.084 8.754,-3.123 13.515,-3.123 6.288,0 11.771,1.741 16.447,5.227 4.673,3.484 8.583,9.435 11.73,17.849 l 3.314,-2.167 c -0.765,-4.59 -2.231,-9.16 -4.399,-13.706 -2.168,-4.548 -4.972,-8.628 -8.414,-12.24 -3.443,-3.613 -7.417,-6.545 -11.921,-8.796 -4.506,-2.251 -9.435,-3.379 -14.79,-3.379 -5.78,0 -11.218,1.169 -16.318,3.507 -5.101,2.336 -9.562,5.672 -13.388,10.007 -3.824,4.335 -6.865,9.583 -9.116,15.746 -2.252,6.161 -3.378,13.068 -3.378,20.718 0,8.243 1.126,15.618 3.378,22.12 2.251,6.503 5.375,12.004 9.372,16.51 3.994,4.504 8.71,7.947 14.152,10.328 5.438,2.378 11.347,3.569 17.722,3.569 5.353,0 10.305,-0.936 14.852,-2.805 4.546,-1.87 8.456,-4.526 11.73,-7.968 3.27,-3.442 5.842,-7.586 7.713,-12.43 1.869,-4.846 2.805,-10.244 2.805,-16.192 z"
             style="fill:#11274a;fill-opacity:1;fill-rule:nonzero;stroke:none"
             id="path40" />
        </g>
        <g
           id="g42"
           transform="translate(865.8878,673.879)">
          <path
             d="m 0,0 v -29.579 h -73.95 v 3.825 l 54.943,85.421 h -27.089 c -2.988,0 -5.371,-0.107 -7.154,-0.318 -1.786,-0.214 -3.224,-0.555 -4.315,-1.021 -1.093,-0.468 -1.966,-1.106 -2.622,-1.912 -0.656,-0.809 -1.275,-1.849 -1.857,-3.124 -0.803,-1.701 -1.439,-3.655 -1.912,-5.865 -0.474,-2.211 -0.783,-4.633 -0.928,-7.266 h -3.604 v 26.9 H 1.419 v -3.952 l -55.38,-85.676 h 30.148 c 3.277,0 5.935,0.128 7.974,0.382 2.038,0.256 3.714,0.702 5.025,1.339 1.311,0.638 2.348,1.508 3.113,2.614 0.764,1.104 1.511,2.465 2.239,4.08 0.945,2.04 1.747,6.757 2.403,14.152 z"
             style="fill:#11274a;fill-opacity:1;fill-rule:nonzero;stroke:none"
             id="path44" />
        </g>
        <g
           id="g46"
           transform="translate(869.6296,740.9402)">
          <path
             d="m 0,0 h 43.35 v -3.952 h -2.801 c -2.6,0 -4.588,-0.66 -5.967,-1.976 -1.382,-1.319 -2.069,-3.124 -2.069,-5.418 0,-2.467 0.729,-5.399 2.191,-8.798 l 21.431,-53.292 21.552,55.332 c 1.542,3.825 2.315,6.799 2.315,8.925 0,1.699 -0.712,2.996 -2.131,3.888 -1.422,0.893 -4.243,1.339 -8.464,1.339 V 0 h 30.077 v -3.952 c -2.111,-0.171 -3.856,-0.554 -5.236,-1.147 -1.381,-0.596 -2.557,-1.403 -3.531,-2.423 -0.974,-1.02 -1.826,-2.295 -2.558,-3.824 -0.729,-1.531 -1.502,-3.316 -2.313,-5.356 L 53.212,-99.573 h -4.139 l -33,81.469 c -1.056,2.55 -2.029,4.632 -2.922,6.247 -0.895,1.614 -1.907,2.933 -3.045,3.953 C 8.969,-6.885 7.611,-6.099 6.028,-5.546 4.444,-4.994 2.436,-4.462 0,-3.952 Z"
             style="fill:#11274a;fill-opacity:1;fill-rule:nonzero;stroke:none"
             id="path48" />
        </g>
        <g
           id="g50"
           transform="translate(995.8724,736.8611)">
          <path
             d="m 0,0 c -3.145,0 -6.163,-0.66 -9.052,-1.976 -2.891,-1.32 -5.419,-3.443 -7.587,-6.375 -2.166,-2.933 -3.91,-6.693 -5.226,-11.283 -1.32,-4.591 -1.976,-10.158 -1.976,-16.702 0,-6.885 0.7,-13.451 2.103,-19.698 1.402,-6.247 3.42,-11.729 6.057,-16.447 2.632,-4.717 5.842,-8.478 9.625,-11.283 3.781,-2.805 8.01,-4.207 12.685,-4.207 3.316,0 6.396,0.637 9.244,1.912 2.846,1.275 5.333,3.378 7.458,6.311 2.124,2.932 3.781,6.777 4.973,11.539 1.189,4.759 1.785,10.623 1.785,17.594 0,6.884 -0.682,13.406 -2.041,19.57 -1.36,6.162 -3.314,11.538 -5.863,16.128 -2.551,4.589 -5.696,8.223 -9.435,10.901 C 9.008,-1.339 4.759,0 0,0 m 3.187,6.885 c 6.629,0 12.791,-1.298 18.486,-3.889 5.694,-2.594 10.624,-6.12 14.791,-10.582 4.163,-4.462 7.414,-9.69 9.752,-15.682 2.338,-5.993 3.507,-12.389 3.507,-19.188 0,-4.421 -0.533,-8.777 -1.595,-13.068 -1.063,-4.293 -2.612,-8.692 -4.653,-13.196 -4.165,-8.925 -9.86,-15.618 -17.083,-20.08 -7.227,-4.462 -15.344,-6.694 -24.353,-6.694 -6.629,0 -12.749,1.361 -18.359,4.08 -5.609,2.719 -10.412,6.395 -14.406,11.028 -3.996,4.632 -7.12,9.987 -9.371,16.065 -2.253,6.076 -3.378,12.43 -3.378,19.06 0,8.925 2.166,17.722 6.502,26.392 2.208,4.334 4.801,8.116 7.777,11.347 2.974,3.229 6.184,5.906 9.625,8.032 3.443,2.123 7.097,3.717 10.965,4.781 3.867,1.062 7.797,1.594 11.793,1.594"
             style="fill:#11274a;fill-opacity:1;fill-rule:nonzero;stroke:none"
             id="path52" />
        </g>
        <g
           id="g54"
           transform="translate(1135.937,740.9402)">
          <path
             d="m 0,0 v -58.519 c 0,-11.22 0.254,-18.104 0.764,-20.654 0.51,-2.467 1.358,-4.188 2.55,-5.164 1.189,-0.978 2.549,-1.467 4.08,-1.467 2.123,0 4.59,0.594 7.395,1.786 l 1.402,-3.698 -28.814,-11.857 h -4.716 v 20.4 c -4.166,-4.591 -7.758,-8.245 -10.774,-10.965 -3.018,-2.721 -5.759,-4.781 -8.224,-6.184 -2.465,-1.402 -4.781,-2.295 -6.948,-2.677 -2.167,-0.382 -4.485,-0.574 -6.949,-0.574 -5.44,0 -10.157,1.552 -14.152,4.654 -3.995,3.101 -6.715,7.118 -8.158,12.048 -1.531,4.928 -2.295,11.899 -2.295,20.909 v 43.093 c 0,2.805 -0.173,5.142 -0.511,7.012 -0.341,1.869 -1.084,3.399 -2.23,4.591 -1.149,1.189 -2.785,2.039 -4.909,2.549 -2.126,0.51 -5.016,0.765 -8.67,0.765 V 0 h 33.786 v -64.639 c 0,-4.59 0.446,-8.331 1.339,-11.22 0.892,-2.89 2.081,-5.121 3.57,-6.693 1.485,-1.574 3.187,-2.636 5.099,-3.187 1.913,-0.554 3.931,-0.829 6.056,-0.829 2.974,0 6.394,0.934 10.264,2.804 3.867,1.869 8.434,5.483 13.706,10.838 v 54.695 c 0,2.719 -0.236,4.992 -0.702,6.82 -0.468,1.828 -1.275,3.272 -2.422,4.335 -1.148,1.062 -2.722,1.828 -4.718,2.295 -1.997,0.467 -4.57,0.743 -7.714,0.829 l 0,3.952 z"
             style="fill:#11274a;fill-opacity:1;fill-rule:nonzero;stroke:none"
             id="path56" />
        </g>
        <g
           id="g58"
           transform="translate(1133.6495,764.2154)">
          <path
             d="m 0,0 c 0,-5.665 -4.593,-10.258 -10.258,-10.258 -5.665,0 -10.258,4.593 -10.258,10.258 0,5.665 4.593,10.258 10.258,10.258 C -4.593,10.258 0,5.665 0,0"
             style="fill:#11274a;fill-opacity:1;fill-rule:nonzero;stroke:none"
             id="path60" />
        </g>
        <g
           id="g62"
           transform="translate(375.9556,709.8311)">
          <path
             d="m 0,0 c -0.626,-2.595 0.397,-2.677 1.78,-4.05 8.411,-8.35 14.647,-12.647 22.254,-22.853 19.517,-26.188 35.705,-62.859 62.941,-82.404 17.267,-12.391 55.527,-29.159 71.718,-8.455 6.119,7.825 3.17,13.164 7.527,20.84 7.234,-0.045 -3.281,-20.673 -5.121,-23.246 -5.268,-7.366 -15.952,-12.882 -24.485,-15.611 -51.204,-16.374 -90.473,25.039 -115.599,64.091 -9.012,14.008 -30.386,61.015 -41.199,67.392 -3.639,2.146 -9.127,3.004 -13.225,4.326 -0.449,2.743 2.253,1.553 4.136,1.65 16.819,0.873 24.27,-2.465 35.66,12.817 19.609,26.309 11.422,70.13 -22.727,78.606 -27.256,6.766 -78.908,-8.896 -80.651,-42.093 -0.396,-7.551 5.686,-19.458 -4.092,-19.413 -12.644,0.059 -9.549,20.955 -5.542,29.085 24.08,48.851 141.514,55.31 149.618,-10.149 C 45.516,30.146 22.164,-2.396 0,0"
             style="fill:#11274a;fill-opacity:1;fill-rule:nonzero;stroke:none"
             id="path64" />
        </g>
        <g
           id="g66"
           transform="translate(1206.2604,716.5306)">
          <path
             d="M 0,0 C 6.728,18.709 -20.475,31.966 -31.042,18.499 -45.845,-0.367 -2.647,-11.543 8.239,-19.326 27.075,-32.791 25.745,-51.965 8.197,-65.851 c -13.375,-10.586 -40.036,-10.985 -53.25,-0.084 -11.992,9.892 -10.876,36.869 6.613,23.317 -9.998,-5.508 -3.434,-14.367 3.498,-19.889 21.544,-17.162 48.532,3.219 30.754,22.401 -14.313,15.444 -47.073,11.385 -47.722,39.23 -0.565,24.262 24.634,32.284 45.297,28.513 C 11.971,24.245 21.419,7.035 0,0"
             style="fill:#11274a;fill-opacity:1;fill-rule:nonzero;stroke:none"
             id="path68" />
        </g>
        <g
           id="g70"
           transform="translate(335.8521,658.8855)">
          <path
             d="m 0,0 c 1.484,-8.7 9.833,-7.625 13.365,-14.184 l -48.448,-1.67 c 1.491,4.118 8.541,7.363 9.68,11.185 0.872,2.923 1.75,19.88 1.997,24.734 1.645,32.286 1.255,71.194 0.088,103.632 -0.153,4.249 -2.035,8.173 -1.75,12.456 l 25.88,6.71 C 3.389,141.977 0,139.079 0,138.662 Z"
             style="fill:#11274a;fill-opacity:1;fill-rule:nonzero;stroke:none"
             id="path72" />
        </g>
      </g>
    </g>
  </g>
</svg>
